<svg width="211" height="210" viewBox="0 0 211 210" fill="none" xmlns="http://www.w3.org/2000/svg">
<path fill-rule="evenodd" clip-rule="evenodd" d="M107.572 106.688C164.617 106.67 210.525 105.921 210.525 105C210.525 104.093 166.027 103.353 110.212 103.314C137.738 75.7243 159.11 53.6125 158.659 53.1614C158.201 52.7032 135.402 74.7546 107.213 102.9C107.195 45.8796 106.446 0 105.525 0C104.604 0 103.855 45.9087 103.837 102.955C75.6235 74.783 52.7952 52.7031 52.3367 53.1616C51.8856 53.6127 73.2582 75.7244 100.784 103.314C44.9945 103.353 0.525391 104.093 0.525391 105C0.525391 105.921 46.4039 106.67 103.424 106.688C74.6371 135.495 51.8707 159.019 52.3361 159.484C52.7946 159.943 75.6239 137.862 103.839 109.689C103.878 165.503 104.618 210 105.525 210C106.432 210 107.172 165.532 107.211 109.744C135.401 137.89 158.201 159.943 158.66 159.485C159.125 159.019 136.359 135.495 107.572 106.688Z" fill="black"/>
</svg>
