<svg width="260" height="367" viewBox="0 0 260 367" fill="none" xmlns="http://www.w3.org/2000/svg">
<mask id="path-1-inside-1_3_4676" fill="white">
<path fill-rule="evenodd" clip-rule="evenodd" d="M104.153 96.0492C102.51 73.588 97.3604 51.5722 89.5479 36.2392C69.9382 -2.24688 24.0522 -6.83465 -9.46575 10.2436C-42.9837 27.3218 -68.5059 62.7003 -46.6336 105.627C-38.3149 121.954 -24.2829 138.673 -8.14664 152.671C-31.6685 154.05 -55.0164 159.308 -71.0536 167.48C-109.54 187.089 -114.127 232.975 -97.0493 266.493C-79.971 300.011 -44.5925 325.533 -1.66573 303.661C17.1153 294.092 36.4169 276.962 51.4958 257.766C51.9585 283.301 57.5727 310.14 67.632 329.883C89.5043 372.81 133.128 372.957 166.646 355.878C200.164 338.8 223.423 298.981 203.813 260.495C194.43 242.079 174.989 221.104 153.375 205.105C178.255 204.374 204.144 198.796 223.33 189.021C266.257 167.148 266.404 123.525 249.326 90.007C232.248 56.4891 192.428 33.2295 153.942 52.8391C137.606 61.1629 119.256 77.4005 104.153 96.0492Z"/>
</mask>
<path d="M104.153 96.0492L101.161 96.268L101.714 103.827L106.484 97.9373L104.153 96.0492ZM-8.14664 152.671L-7.971 155.665L-0.613275 155.234L-6.18085 150.404L-8.14664 152.671ZM51.4958 257.766L54.4954 257.711L54.3427 249.285L49.1367 255.913L51.4958 257.766ZM153.375 205.105L153.286 202.107L144.624 202.361L151.59 207.517L153.375 205.105ZM86.8748 37.6012C94.4465 52.4613 99.5358 74.0494 101.161 96.268L107.145 95.8303C105.484 73.1265 100.274 50.6831 92.2209 34.8772L86.8748 37.6012ZM-8.10378 12.9166C24.5003 -3.69598 68.275 1.097 86.8748 37.6012L92.2209 34.8772C71.6014 -5.59075 23.6041 -9.97332 -10.8277 7.57057L-8.10378 12.9166ZM-43.9606 104.265C-54.4814 83.6168 -53.5394 65.0235 -46.1158 49.5391C-38.6338 33.9328 -24.4381 21.2394 -8.10378 12.9166L-10.8277 7.57057C-28.0113 16.326 -43.3356 29.861 -51.5262 46.9452C-59.7751 64.1513 -60.658 84.7107 -49.3066 106.989L-43.9606 104.265ZM-6.18085 150.404C-22.1081 136.588 -35.8609 120.162 -43.9606 104.265L-49.3066 106.989C-40.7689 123.745 -26.4577 140.758 -10.1124 154.937L-6.18085 150.404ZM-69.6917 170.153C-54.1442 162.231 -31.2405 157.03 -7.971 155.665L-8.32228 149.676C-32.0965 151.07 -55.8886 156.386 -72.4156 164.807L-69.6917 170.153ZM-94.3762 265.131C-110.989 232.527 -106.196 188.753 -69.6917 170.153L-72.4156 164.807C-112.884 185.426 -117.266 233.423 -99.7223 267.855L-94.3762 265.131ZM-3.0277 300.988C-23.676 311.509 -42.2693 310.567 -57.7538 303.143C-73.36 295.661 -86.0535 281.466 -94.3762 265.131L-99.7223 267.855C-90.9668 285.039 -77.4319 300.363 -60.3476 308.554C-43.1416 316.803 -22.5822 317.686 -0.303759 306.334L-3.0277 300.988ZM49.1367 255.913C34.252 274.862 15.2704 291.665 -3.0277 300.988L-0.303759 306.334C18.9601 296.519 38.5817 279.063 53.855 259.619L49.1367 255.913ZM70.305 328.521C60.5018 309.281 54.952 282.915 54.4954 257.711L48.4963 257.82C48.965 283.687 54.6435 311 64.959 331.245L70.305 328.521ZM165.284 353.205C148.949 361.528 130.336 365.552 113.313 362.432C96.4219 359.336 80.8259 349.169 70.305 328.521L64.959 331.245C76.3104 353.523 93.4622 364.893 112.231 368.333C130.867 371.749 150.824 367.307 168.008 358.551L165.284 353.205ZM201.14 261.857C219.74 298.361 197.888 336.593 165.284 353.205L168.008 358.551C202.439 341.008 227.106 299.601 206.486 259.133L201.14 261.857ZM151.59 207.517C172.969 223.341 192.034 243.984 201.14 261.857L206.486 259.133C196.826 240.173 177.009 218.866 155.159 202.694L151.59 207.517ZM153.463 208.104C178.665 207.363 205.015 201.72 224.692 191.694L221.968 186.348C203.273 195.873 177.845 201.385 153.286 202.107L153.463 208.104ZM224.692 191.694C246.971 180.342 258.341 163.19 261.781 144.422C265.196 125.786 260.754 105.829 251.999 88.645L246.653 91.3689C254.975 107.703 258.999 126.317 255.879 143.34C252.783 160.231 242.616 175.827 221.968 186.348L224.692 191.694ZM251.999 88.645C234.455 54.2132 193.048 29.5466 152.58 50.1661L155.304 55.5121C191.808 36.9123 230.04 58.7649 246.653 91.3689L251.999 88.645ZM152.58 50.1661C135.747 58.743 117.087 75.3126 101.822 94.1611L106.484 97.9373C121.426 79.4885 139.465 63.5828 155.304 55.5121L152.58 50.1661Z" fill="white" mask="url(#path-1-inside-1_3_4676)"/>
</svg>
