<svg width="62" height="88" viewBox="0 0 62 88" fill="none" xmlns="http://www.w3.org/2000/svg">
<g id="Union">
<mask id="path-1-inside-1_3_4793" fill="white">
<path fill-rule="evenodd" clip-rule="evenodd" d="M50.3702 23.4896C49.9785 18.1355 48.7509 12.8877 46.8886 9.23271C42.214 0.0582757 31.2756 -1.03537 23.2854 3.03579C15.2953 7.10696 9.21125 15.5406 14.4252 25.7736C16.4083 29.6656 19.7532 33.6513 23.5998 36.988C17.9924 37.3168 12.4264 38.5702 8.60324 40.5182C-0.571199 45.1928 -1.66485 56.1313 2.40632 64.1214C6.47749 72.1116 14.9111 78.1956 25.1442 72.9816C29.6213 70.7004 34.2225 66.617 37.8171 62.0408C37.9274 68.128 39.2657 74.5261 41.6637 79.2324C46.8777 89.4655 57.2768 89.5005 65.2669 85.4293C73.257 81.3582 78.8017 71.8659 74.1271 62.6915C71.8901 58.3012 67.2555 53.301 62.1028 49.4872C68.0341 49.313 74.2059 47.9833 78.7797 45.6529C89.0127 40.4389 89.0478 30.0398 84.9766 22.0497C80.9055 14.0595 71.4132 8.51485 62.2388 13.1895C58.3446 15.1736 53.9705 19.0443 50.3702 23.4896Z"/>
</mask>
<path d="M50.3702 23.4896L49.6569 23.5418L49.7888 25.3438L50.9259 23.9397L50.3702 23.4896ZM23.5998 36.988L23.6417 37.7019L25.3956 37.599L24.0684 36.4477L23.5998 36.988ZM37.8171 62.0408L38.5321 62.0279L38.4957 60.0191L37.2547 61.5991L37.8171 62.0408ZM62.1028 49.4872L62.0818 48.7724L60.0169 48.833L61.6774 50.062L62.1028 49.4872ZM46.2514 9.55739C48.0563 13.0996 49.2695 18.2455 49.6569 23.5418L51.0834 23.4374C50.6875 18.0255 49.4456 12.6757 47.5258 8.90804L46.2514 9.55739ZM23.6101 3.673C31.3824 -0.287164 41.8176 0.8554 46.2514 9.55739L47.5258 8.90804C42.6105 -0.738848 31.1687 -1.78358 22.9608 2.39859L23.6101 3.673ZM15.0624 25.449C12.5544 20.5267 12.779 16.0944 14.5487 12.4032C16.3322 8.68291 19.7163 5.65701 23.6101 3.673L22.9608 2.39859C18.8645 4.48575 15.2114 7.71225 13.2589 11.7849C11.2925 15.8865 11.082 20.7875 13.788 26.0983L15.0624 25.449ZM24.0684 36.4477C20.2717 33.1542 16.9933 29.2384 15.0624 25.449L13.788 26.0983C15.8233 30.0927 19.2348 34.1483 23.1312 37.5282L24.0684 36.4477ZM8.92791 41.1554C12.6343 39.2669 18.0944 38.0271 23.6417 37.7019L23.5579 36.274C17.8904 36.6064 12.2185 37.8736 8.27857 39.881L8.92791 41.1554ZM3.04352 63.7968C-0.916641 56.0245 0.225926 45.5893 8.92791 41.1554L8.27857 39.881C-1.36832 44.7964 -2.41306 56.2381 1.76912 64.4461L3.04352 63.7968ZM24.8195 72.3444C19.8973 74.8524 15.4649 74.6279 11.7737 72.8582C8.05344 71.0746 5.02753 67.6906 3.04352 63.7968L1.76912 64.4461C3.85628 68.5424 7.08278 72.1955 11.1554 74.1479C15.257 76.1144 20.158 76.3248 25.4688 73.6188L24.8195 72.3444ZM37.2547 61.5991C33.7064 66.1162 29.1815 70.1219 24.8195 72.3444L25.4688 73.6188C30.0611 71.279 34.7386 67.1177 38.3795 62.4826L37.2547 61.5991ZM42.3009 78.9078C39.964 74.3213 38.641 68.036 38.5321 62.0279L37.1021 62.0538C37.2138 68.22 38.5674 74.7309 41.0265 79.5571L42.3009 78.9078ZM64.9422 84.7921C61.0484 86.7762 56.6113 87.7353 52.5532 86.9915C48.5267 86.2536 44.8089 83.83 42.3009 78.9078L41.0265 79.5571C43.7325 84.8679 47.8212 87.5784 52.2953 88.3984C56.7378 89.2126 61.4953 88.1537 65.5916 86.0665L64.9422 84.7921ZM73.4899 63.0162C77.9238 71.7182 72.7145 80.832 64.9422 84.7921L65.5916 86.0665C73.7995 81.8844 79.6796 72.0137 74.7643 62.3668L73.4899 63.0162ZM61.6774 50.062C66.774 53.8343 71.319 58.7555 73.4899 63.0162L74.7643 62.3668C72.4613 57.847 67.7371 52.7677 62.5283 48.9124L61.6774 50.062ZM62.1238 50.2021C68.1318 50.0256 74.4134 48.6802 79.1044 46.2901L78.455 45.0157C73.9983 47.2865 67.9365 48.6004 62.0818 48.7724L62.1238 50.2021ZM79.1044 46.2901C84.4152 43.5841 87.1257 39.4954 87.9457 35.0212C88.7599 30.5788 87.701 25.8213 85.6138 21.725L84.3394 22.3743C86.3234 26.2682 87.2826 30.7053 86.5388 34.7634C85.8008 38.7898 83.3773 42.5077 78.455 45.0157L79.1044 46.2901ZM85.6138 21.725C81.4317 13.517 71.561 7.63692 61.9141 12.5523L62.5635 13.8267C71.2654 9.39278 80.3793 14.6021 84.3394 22.3743L85.6138 21.725ZM61.9141 12.5523C57.9015 14.5968 53.4533 18.5465 49.8144 23.0395L50.9259 23.9397C54.4877 19.542 58.7877 15.7505 62.5635 13.8267L61.9141 12.5523Z" fill="white" mask="url(#path-1-inside-1_3_4793)"/>
</g>
</svg>
