<svg width="1678" height="1268" viewBox="0 0 1678 1268" fill="none" xmlns="http://www.w3.org/2000/svg">
<path d="M1612.59 477.523C1687.98 848.161 1588.53 1093.68 1439.16 1202.71C1289.82 1311.72 1090.43 1284.42 965.487 1109.13C918.249 1042.86 884.494 989.135 857.039 945.437C848.148 931.287 839.918 918.187 832.104 906.053C800.17 856.464 775.174 822.969 740.476 799.852C705.773 776.731 661.419 764.024 590.834 755.871C520.251 747.718 423.372 744.112 283.585 739.237C143.903 734.366 50.0045 681.158 5.0961 605.581C-39.8109 530.007 -35.8093 431.936 20.5801 337.162C133.363 147.605 455.717 -28.6697 1014.72 15.5731C1294.28 37.6999 1462.06 31.3165 1558.82 20.8762C1607.21 15.6559 1637.83 9.42143 1655.81 5.23045C1660.42 4.15413 1664.19 3.21658 1667.2 2.46547C1670.07 1.75038 1672.27 1.20429 1673.87 0.868351C1674.68 0.697249 1675.33 0.584883 1675.82 0.532925C1676.23 0.489281 1676.49 0.494195 1676.64 0.518219C1676.59 0.629712 1676.48 0.80846 1676.28 1.07035C1675.74 1.77732 1674.73 2.80942 1673.29 4.24351C1673.03 4.50788 1672.75 4.78516 1672.46 5.0756C1671.18 6.34825 1669.64 7.87362 1667.9 9.67337C1663.62 14.0967 1658.08 20.1822 1651.92 28.3119C1639.62 44.5721 1624.85 68.9978 1612.74 104.645C1588.51 175.94 1574.87 292.087 1612.59 477.523ZM1676.75 0.54808C1676.75 0.548091 1676.75 0.547932 1676.75 0.547581L1676.75 0.54808Z" stroke="black"/>
</svg>
