<svg width="80" height="80" viewBox="0 0 80 80" fill="none" xmlns="http://www.w3.org/2000/svg">
<path d="M29.4935 18.6454C29.134 20.3736 29.5198 22.0427 30.5181 23.1386C30.7877 25.5441 31.5592 28.6125 33.0277 30.7123C35.1077 33.7062 38.7921 35.3906 42.0666 34.4427C44.3461 33.7797 46.2946 31.9024 47.4091 29.292C48.2749 27.2679 48.425 24.309 48.5576 22.0832C52.9346 18.0241 49.0902 9.772 42.4239 10.1424C43.3006 6.48214 39.6349 3.56597 36.0962 4.80433C32.539 6.04159 31.1132 10.8942 33.5571 12.7879C31.3686 13.9419 29.9735 16.3353 29.4935 18.6454ZM45.899 28.6454C44.9894 30.7704 43.3861 32.3473 41.6097 32.8646C38.8272 33.6657 35.8672 31.9178 34.3768 29.7731C32.9664 27.7578 32.2672 24.5523 32.0929 22.3956L32.6255 21.4356C33.3098 22.3965 34.1507 23.2356 35.1132 23.9178C35.2861 24.0407 35.4998 24.0921 35.7097 24.0613C35.9196 24.0305 36.1095 23.9197 36.2398 23.7523C37.1807 22.5409 38.1715 21.3691 39.2097 20.2399C39.5648 21.1607 40.0703 22.0162 40.7055 22.7715C41.0891 23.2295 41.6973 23.1079 41.9768 22.7561C42.9549 21.5366 44.0168 20.3868 45.1549 19.315C45.6261 20.1698 46.2288 20.9621 46.9357 21.6931C46.8107 23.7819 46.6847 26.8109 45.899 28.6454ZM36.6354 6.35611C37.8124 5.94844 39.2217 6.23885 40.0612 7.06515C40.9203 7.91228 41.1636 9.31502 40.6266 10.3287C40.6058 10.3682 40.6047 10.412 40.5905 10.4525C38.8918 10.9369 38.3494 11.4531 37.5834 12.103C37.1724 12.1325 37.339 12.1304 37.0146 12.1468C36.7098 12.103 36.4017 12.0865 36.094 12.0975V12.0997C35.1242 11.9462 34.425 11.4991 34.2398 11.1616C33.4836 9.79173 34.4524 7.11666 36.6354 6.35611ZM35.9823 13.7468C36.665 13.8378 36.8162 13.7939 36.9269 13.7917C37.8124 13.9561 37.6316 14.2224 38.9192 13.1243C39.2053 12.881 39.5483 12.5238 40.6957 12.1271C46.4929 10.1413 50.6025 16.6235 47.9176 20.3353C46.0031 18.2454 46.4425 17.3578 45.5943 17.1649C45.467 17.1356 45.3344 17.1372 45.2078 17.1696C45.0813 17.2021 44.9643 17.2643 44.8666 17.3512C43.622 18.4548 42.4551 19.643 41.374 20.9073C40.1247 18.9249 40.7275 18.1008 39.8442 17.8345C39.6994 17.791 39.5454 17.7882 39.3991 17.8262C39.2529 17.8643 39.1198 17.9418 39.0146 18.0504C37.7645 19.3447 36.5745 20.6959 35.4486 22.0997C34.5686 21.3613 33.8482 20.4515 33.3313 19.4257C33.0244 18.8054 32.1729 18.8558 31.8738 19.395C31.6184 19.8597 31.3631 20.3178 31.1088 20.778C30.5302 18.2246 32.7527 14.0142 35.9823 13.7468ZM18.4031 74.3923C19.4672 75.3786 20.8951 75.4027 22.4129 75.406L60.6628 75.4849C61.6951 75.4871 62.8688 75.4279 63.534 74.6378C64.0962 73.9682 64.1565 72.8032 63.2403 72.1095C63.2809 70.4843 62.6376 69.3501 61.6305 68.732C62.7965 62.1742 63.3072 55.5199 63.8157 48.8789C63.899 47.7983 63.9768 46.6783 63.6053 45.6591C63.0431 44.1128 61.7225 43.2778 60.3417 43.2734L56.8666 43.2657C54.9324 39.7775 52.9631 37.338 47.7883 35.3446C47.6634 35.3315 47.2765 35.1988 46.9412 35.498C45.3203 36.9402 42.5905 38.1062 40.4513 38.1062C38.3055 38.0887 35.5242 37.029 33.9812 35.6416C33.868 35.5488 33.7337 35.4852 33.5902 35.4566C33.4467 35.4279 33.2983 35.435 33.1581 35.4772C31.9625 35.909 30.2398 36.6169 28.8316 37.5364C26.3077 39.1846 24.2507 41.0432 22.5302 43.1879L19.4529 43.1813C18.9726 43.1815 18.4977 43.2835 18.0596 43.4805C17.6215 43.6776 17.2302 43.9652 16.9114 44.3245C16.5926 44.6838 16.3535 45.1066 16.21 45.565C16.0665 46.0235 16.0217 46.5071 16.0787 46.9841L18.5861 67.8794C18.6464 68.3846 18.8272 68.846 19.0792 69.2547C16.3198 69.4849 15.8749 73.4498 18.4031 74.3945V74.3923ZM29.7313 38.9128C30.6343 38.3243 31.8902 37.7216 33.2897 37.189C35.1965 38.6947 38.1477 39.7501 40.5006 39.7501C42.745 39.7501 45.6392 38.6378 47.6239 37.0553C51.705 38.7232 53.3883 40.6071 54.9729 43.2613L24.6803 43.1934C26.1083 41.6098 27.7675 40.195 29.7313 38.9128ZM17.7127 46.7901C17.6524 46.2827 17.8047 45.7928 18.1444 45.4125C18.7176 44.7693 19.3434 44.8504 19.4595 44.8252L60.3384 44.9172C60.5865 44.9174 60.8318 44.9702 61.0579 45.0722C61.2841 45.1742 61.486 45.323 61.6504 45.5089C61.8148 45.6947 61.9379 45.9133 62.0115 46.1502C62.0852 46.3871 62.1077 46.637 62.0776 46.8832L59.5647 67.6843C59.5128 68.1101 59.307 68.5023 58.9861 68.7869C58.6652 69.0715 58.2512 69.2289 57.8223 69.2295H21.9614C21.0738 69.2295 20.3242 68.5654 20.219 67.6843L17.7127 46.7901ZM18.3844 71.7841C18.3844 71.2832 18.791 70.8767 19.2918 70.8767H60.2661C60.7658 70.8767 61.1735 71.2821 61.1735 71.7841V72.0098C61.1732 72.2504 61.0775 72.481 60.9074 72.6511C60.7373 72.8212 60.5067 72.9169 60.2661 72.9172H19.2907C19.0504 72.9166 18.82 72.8208 18.6502 72.6507C18.4803 72.4807 18.3847 72.2502 18.3844 72.0098V71.7841Z" fill="#13348F"/>
<path d="M36.2902 60.4252C37.0731 60.9433 37.9926 61.2164 38.9313 61.2098C39.9593 61.2098 40.9872 60.8942 41.808 60.2696C43.3741 59.075 44.0535 56.8559 43.4234 54.9896C42.7571 53.0148 40.9576 51.7435 38.8053 51.8389C36.6683 51.9002 34.9291 53.2383 34.3757 55.2471C33.8541 57.1463 34.6584 59.3238 36.2902 60.4252ZM35.9615 55.6844C36.3943 54.1096 37.739 53.5145 38.8524 53.4816C39.9856 53.4531 41.3434 53.9682 41.8661 55.5167C42.2705 56.7145 41.8168 58.195 40.8119 58.9611C39.8058 59.7271 38.2573 59.7709 37.2108 59.0641C36.1631 58.3561 35.625 56.9041 35.9615 55.6844Z" fill="#13348F"/>
</svg>
