<svg width="80" height="80" viewBox="0 0 80 80" fill="none" xmlns="http://www.w3.org/2000/svg">
<path d="M67.45 52.7682C67.6599 52.2296 67.7741 51.6584 67.7875 51.0805C68.8659 35.9671 69.0675 22.7989 68.4012 10.8799C68.4396 8.03721 66.1382 5.81693 63.4478 5.81693C46.7848 5.16598 25.6505 4.57967 10.0659 5.81693C9.17601 5.81693 8.35081 6.06899 7.62642 6.47995C5.94533 6.68817 4.60177 8.32872 3.95519 9.78625C3.10259 11.7041 3.04232 13.8652 2.99629 15.9627C2.77492 25.8871 2.88341 35.7797 2.66204 45.703C2.4056 57.258 3.76889 57.9452 14.9251 58.4558C29.1234 59.1057 43.347 58.5468 57.5508 57.9693C57.6396 61.8016 57.7525 65.6339 57.8993 69.4487C57.9103 69.7249 58.2434 70.0602 58.4516 70.24C58.7651 70.7331 59.4226 70.7331 59.7634 70.3364C60.8045 69.1232 61.6264 68.2761 63.5497 66.1753C64.9163 68.6465 66.4637 71.2493 67.8434 73.7315C68.239 74.4427 68.9119 74.7495 69.7251 74.7901C69.9278 74.8668 70.1108 74.9336 70.4977 74.8964C72.1086 74.7473 73.2308 74.0745 74.1305 72.7221C74.3141 72.4501 74.4177 72.1319 74.4293 71.8039C74.4409 71.4759 74.3602 71.1512 74.1963 70.8668C72.6292 68.1884 71.0807 65.5265 69.4401 62.503C71.7612 62.1731 73.4774 62.0613 76.6292 61.7304C76.7891 61.7138 76.9406 61.6506 77.065 61.5488C77.1894 61.4469 77.2812 61.3108 77.329 61.1573C77.3768 61.0038 77.3786 60.8397 77.3341 60.6852C77.2895 60.5307 77.2007 60.3927 77.0785 60.2882C74.0253 57.6657 70.7475 55.1309 67.45 52.7682ZM59.4248 47.3873C59.2999 47.3089 59.1563 47.2655 59.0089 47.2616C58.8615 47.2578 58.7158 47.2937 58.5871 47.3655C58.4583 47.4373 58.3512 47.5425 58.2771 47.6699C58.2029 47.7973 58.1644 47.9424 58.1656 48.0898L58.1678 48.298L57.5355 49.3665C57.3272 49.7172 57.3985 49.5506 57.4862 54.4734C52.4374 54.5304 33.5267 55.1528 10.067 54.3309C8.22368 54.3309 6.72451 52.8284 6.72232 50.915C6.0319 42.0405 5.88944 31.9747 6.29273 20.3364H67.096C67.3481 34.7802 66.25 50.9775 66.044 51.7994C63.8726 50.2772 61.6656 48.8053 59.4248 47.3873ZM10.1316 7.45858C25.9629 6.20598 47.4873 6.84159 63.4138 7.46077C65.222 7.46077 66.7837 8.90077 66.7585 10.9161C66.8998 13.4476 66.993 16.0471 67.0555 18.6936H6.353C6.45163 16.138 6.57437 13.5134 6.72451 10.8043C6.72451 8.95995 8.22369 7.46187 10.1327 7.45858H10.1316ZM68.0341 61.0542C67.905 61.075 67.7826 61.1262 67.6773 61.2038C67.5719 61.2813 67.4866 61.3829 67.4284 61.5C67.3702 61.6172 67.3408 61.7465 67.3427 61.8773C67.3445 62.0081 67.3775 62.1365 67.439 62.252C69.2999 65.7347 71.027 68.7068 72.7771 71.6986L73.4872 71.2821L72.764 71.8082C72.0407 72.8986 71.302 73.1725 70.2467 73.2175C70.1645 73.0717 65.1409 63.8235 65.0445 63.6427C64.9776 63.5309 64.885 63.4366 64.7745 63.3675C64.664 63.2985 64.5386 63.2568 64.4088 63.2458C64.2789 63.2347 64.1483 63.2547 64.0277 63.3041C63.9071 63.3535 63.8 63.4309 63.7152 63.5298C62.5864 64.8449 61.2527 66.2389 59.9453 67.6613C59.9344 66.503 59.8248 49.7435 59.8237 49.5923C64.6522 52.7046 70.0451 56.5556 74.5327 60.2904C72.0779 60.5271 70.4045 60.6739 68.0341 61.0542Z" fill="#13348F"/>
<path d="M11.1675 15.7337C12.5297 15.4783 13.1335 14.0493 12.3675 12.8975C12.008 12.3561 11.4338 12.0328 10.8289 12.0328C10.7204 12.0854 10.5954 12.058 10.4913 12.1041C10.0343 12.0668 9.23763 12.5775 9.02721 13.5178C8.72804 14.8668 9.79434 15.978 11.1675 15.7337ZM17.3943 15.6548C18.9352 15.6548 19.8393 14.0854 18.9702 12.7813C18.3489 11.8498 17.3187 11.8893 17.4283 11.92C17.3143 11.9201 17.2016 11.944 17.0974 11.9901C16.9826 11.9819 16.8675 12.0003 16.7609 12.0438C14.9538 12.732 15.2793 15.6548 17.3943 15.6548ZM24.7839 15.7622C26.1472 15.5101 26.7489 14.0778 25.9828 12.926C25.4612 12.1369 24.5582 11.9353 24.11 12.1337C23.9953 12.127 23.8806 12.1449 23.7735 12.1863C21.8009 12.9402 22.4234 16.2027 24.7839 15.7622ZM35.5653 13.5989H35.5752L58.2305 13.3359C58.6842 13.3304 59.048 12.9578 59.0426 12.503C59.0371 12.0482 58.682 11.7249 58.2108 11.692L35.5554 11.955C35.3375 11.9565 35.129 12.0445 34.9759 12.1996C34.8227 12.3548 34.7375 12.5644 34.739 12.7824C34.7404 13.0004 34.8284 13.2089 34.9836 13.362C35.1388 13.5151 35.3473 13.6003 35.5653 13.5989ZM26.0037 25.8476H12.9691C11.0184 25.8476 9.43379 27.2602 9.43379 28.9961V39.3304C9.43379 41.0422 10.9976 42.4537 12.9209 42.4767C29.6278 42.6783 24.7368 42.6301 25.6574 42.6301C27.5532 42.6301 29.1346 41.2701 29.1927 39.5759L29.5379 29.0882C29.5642 28.2991 29.2595 27.5364 28.6831 26.9402C28.0124 26.2465 27.0349 25.8476 26.0037 25.8476ZM27.5489 39.5211C27.5215 40.343 26.6349 40.9764 25.6289 40.9863L12.9406 40.8328C11.9127 40.8208 11.0776 40.1457 11.0776 39.3293V28.995C11.0776 28.1665 11.9258 27.4915 12.9691 27.4915H26.0037C26.5921 27.4915 27.139 27.7074 27.5028 28.0833C27.6891 28.2761 27.9083 28.5983 27.8941 29.0356L27.5489 39.5211ZM57.2519 28.5676H38.3061C38.0881 28.5676 37.8791 28.6542 37.7249 28.8084C37.5708 28.9625 37.4842 29.1716 37.4842 29.3896C37.4842 29.6075 37.5708 29.8166 37.7249 29.9707C37.8791 30.1249 38.0881 30.2115 38.3061 30.2115H57.2519C57.4699 30.2115 57.6789 30.1249 57.8331 29.9707C57.9872 29.8166 58.0738 29.6075 58.0738 29.3896C58.0738 29.1716 57.9872 28.9625 57.8331 28.8084C57.6789 28.6542 57.4699 28.5676 57.2519 28.5676ZM56.9154 37.8696H34.0124C33.7944 37.8696 33.5854 37.9561 33.4312 38.1103C33.2771 38.2644 33.1905 38.4735 33.1905 38.6915C33.1905 38.9095 33.2771 39.1185 33.4312 39.2727C33.5854 39.4268 33.7944 39.5134 34.0124 39.5134H56.9154C57.1334 39.5134 57.3425 39.4268 57.4966 39.2727C57.6508 39.1185 57.7374 38.9095 57.7374 38.6915C57.7374 38.4735 57.6508 38.2644 57.4966 38.1103C57.3425 37.9561 57.1334 37.8696 56.9154 37.8696ZM50.6185 46.1709H39.1642C38.9462 46.1709 38.7372 46.2575 38.583 46.4117C38.4289 46.5658 38.3423 46.7749 38.3423 46.9928C38.3423 47.2108 38.4289 47.4199 38.583 47.574C38.7372 47.7282 38.9462 47.8148 39.1642 47.8148H50.6195C50.8375 47.8148 51.0466 47.7282 51.2007 47.574C51.3549 47.4199 51.4415 47.2108 51.4415 46.9928C51.4415 46.7749 51.3549 46.5658 51.2007 46.4117C51.0466 46.2575 50.8364 46.1709 50.6185 46.1709Z" fill="#13348F"/>
</svg>
