<svg width="70" height="70" viewBox="0 0 70 70" fill="none" xmlns="http://www.w3.org/2000/svg">
<path d="M66.5002 3.63459C65.5579 2.69228 64.481 2.15382 63.1348 1.88459C62.8656 1.88459 62.4617 1.74997 62.1925 1.74997H59.7694L35.0002 1.61536H8.61557C8.21173 1.61536 7.40403 1.61536 6.86557 1.74997C5.65403 2.0192 4.4425 2.69228 3.50019 3.63459C2.6925 4.44228 2.01942 5.5192 1.61557 6.86536C1.48096 7.40382 1.48096 8.07689 1.48096 8.61536C1.61557 27.7307 1.61557 21.1346 1.61557 22.6154L2.01942 47.3846V50.4807C2.01942 51.423 2.15403 52.7692 2.6925 53.7115C3.6348 55.7307 5.92326 57.2115 8.21173 57.0769L19.1156 56.673L17.904 58.423C17.6348 58.9615 17.6348 59.5 18.0386 60.0384L21.9425 63.9423C22.3463 64.3461 23.0194 64.4807 23.5579 64.0769C23.9617 63.8077 26.7887 61.923 26.5194 62.0577C27.731 62.7307 28.9425 63.2692 30.2886 63.673L30.9617 67.3077C31.0963 67.9807 31.6348 68.3846 32.3079 68.3846H37.8271C38.5002 68.3846 39.0387 67.9807 39.1733 67.3077L39.8463 63.8077C41.1925 63.4038 42.5387 62.8654 43.7502 62.1923C43.8848 62.3269 46.8463 64.3461 46.7117 64.2115C47.2502 64.4807 47.9233 64.4807 48.3271 64.0769L52.231 60.173C52.6348 59.7692 52.7694 59.0961 52.3656 58.5577L51.154 56.8077L62.0579 57.2115C64.3463 57.2115 66.5002 55.8654 67.5771 53.8461C68.1156 52.9038 68.2502 51.5577 68.2502 50.6153V47.5192L68.654 22.75C68.654 21.2692 68.654 27.8654 68.7887 8.74997C68.7887 8.21151 68.7887 7.53843 68.654 6.86536C67.981 5.65382 67.3079 4.44228 66.5002 3.63459ZM3.90403 8.61536C3.90403 8.07689 3.90403 7.80766 4.03865 7.40382C4.17326 6.59613 4.71173 5.92305 5.25019 5.38459C5.78865 4.84613 6.59634 4.44228 7.40403 4.30766C8.07711 4.17305 9.15403 4.30766 10.231 4.17305H61.9233C62.0579 4.17305 62.3271 4.17305 62.4617 4.30766C63.2694 4.44228 63.9425 4.84613 64.6156 5.38459C65.154 5.92305 65.6925 6.59613 65.8271 7.40382C65.9617 7.80766 65.9617 8.21151 65.9617 8.61536V16.2884C60.981 15.75 56.0002 15.4807 50.8848 15.3461C45.5002 15.0769 40.1156 15.0769 34.731 15.0769C29.3463 15.0769 23.9617 15.2115 18.5771 15.3461C13.5963 15.4807 8.61557 15.75 3.6348 16.2884V10.2307L3.90403 8.61536ZM66.6348 51.9615C66.6348 52.3653 66.5002 52.9038 66.231 53.3077C65.5579 55.0577 63.6733 56.2692 61.7887 56.2692L50.8848 56.673L50.2117 55.5961C50.8848 54.3846 51.4233 52.9038 51.8271 51.5577L55.3271 50.75C55.8656 50.6154 56.1348 50.2115 56.1348 49.673C56.1348 49.5384 56.0002 43.75 56.0002 44.1538C56.0002 43.75 55.5963 43.3461 55.1925 43.2115L51.4233 42.5384C51.0194 41.0577 50.3463 39.5769 49.5387 38.3654L51.6925 35.1346C51.8271 34.8654 51.8271 34.4615 51.5579 34.1923C51.4233 34.0577 47.2502 30.1538 47.5194 30.423C47.3848 30.2884 46.981 30.1538 46.8463 30.423L43.481 32.8461C42.0002 32.0384 40.3848 31.3654 38.7694 31.0961L37.8271 26.923C37.8271 26.923 37.8271 26.7884 37.6925 26.7884L35.0002 26.923L37.6925 27.0577L38.3656 31.3654C38.3656 31.5 38.5002 31.5 38.5002 31.6346C40.2502 32.0384 41.8656 32.8461 43.3463 33.7884C43.481 33.923 43.6156 33.923 43.7502 33.7884L47.1156 31.6346L50.2117 34.8654L48.0579 37.9615C47.9233 38.2307 47.9233 38.5 48.0579 38.7692C49.0002 40.25 49.5387 41.8654 49.9425 43.6154C50.0771 44.0192 50.3463 44.2884 50.6156 44.2884L54.1156 44.9615V48.7307L50.7502 49.4038C50.3463 49.5384 49.9425 49.8077 49.8079 50.2115C49.404 51.8269 48.731 53.4423 47.7887 54.923C47.5194 55.3269 47.5194 55.8653 47.7887 56.2692C47.9233 56.5384 49.8079 59.2307 49.6733 59.0961L47.1156 61.5192L44.4233 59.6346C44.0194 59.3653 43.481 59.3653 42.9425 59.6346C41.4617 60.5769 39.981 61.1154 38.231 61.5192C37.6925 61.6538 37.2887 62.0577 37.154 62.5961C37.154 62.8653 36.481 66.0961 36.481 65.8269H33.2502C33.2502 65.6923 32.5771 62.3269 32.5771 62.5961C32.4425 62.0577 32.0386 61.6538 31.6348 61.5192C30.0194 61.1154 28.404 60.4423 27.0579 59.6346C26.654 59.3653 26.1156 59.3653 25.5771 59.6346L22.8848 61.5192L20.4617 59.0961C20.5963 58.9615 22.481 56 22.3463 56.2692C22.6156 55.8653 22.6156 55.3269 22.3463 54.923C21.404 53.5769 20.731 51.9615 20.4617 50.3461C20.3271 49.9423 20.0579 49.5384 19.5194 49.5384L16.0194 48.8653V45.0961C16.154 45.0961 19.9233 44.2884 19.654 44.2884C20.0579 44.1538 20.3271 43.8846 20.3271 43.6154C20.731 42 21.2694 40.3846 22.2117 38.9038C22.3463 38.6346 22.3463 38.3654 22.2117 38.0961L19.9233 34.8654L23.0194 31.6346C23.154 31.7692 26.654 33.923 26.3848 33.7884C26.5194 33.923 26.654 33.923 26.7886 33.7884C28.2694 32.8461 29.8848 32.0384 31.5002 31.6346C31.6348 31.6346 31.6348 31.5 31.6348 31.3654L32.3079 27.0577L35.0002 26.923L32.3079 26.7884C32.3079 26.7884 32.1733 26.7884 32.1733 26.923C32.1733 27.1923 31.231 31.2307 31.231 31.0961C29.6156 31.5 28.0002 32.0384 26.5194 32.8461L23.0194 30.423C22.7502 30.2884 22.481 30.2884 22.3463 30.423C22.0771 30.6923 18.0386 34.4615 18.3079 34.1923C18.0386 34.4615 18.0386 34.7307 18.1733 35.1346C18.3079 35.4038 20.4617 38.6346 20.3271 38.5C19.5194 39.7115 18.981 41.1923 18.5771 42.5384L14.6733 43.2115C14.2694 43.3461 13.8656 43.75 13.8656 44.1538C13.8656 44.5577 13.731 50.0769 13.731 49.673C13.731 50.2115 14.1348 50.6154 14.5386 50.75C14.9425 50.8846 18.4425 51.5577 18.3079 51.5577C18.7117 52.9038 19.2502 54.25 19.9233 55.4615L19.1156 56.673L8.21173 56.2692C6.32711 56.2692 4.57711 55.0577 3.76942 53.3077C3.6348 52.9038 3.50019 52.5 3.36557 51.9615C3.23096 51.5577 3.36557 51.0192 3.36557 50.4807V47.3846L3.76942 22.6154V16.423C8.75019 16.9615 13.731 17.2307 18.8463 17.3654C24.231 17.6346 29.6156 17.6346 35.0002 17.6346C40.3848 17.6346 45.7694 17.5 51.154 17.3654C56.1348 17.2307 61.1156 16.9615 66.231 16.423V22.6154L66.6348 47.3846V50.4807V51.9615Z" fill="#13348F"/>
<path d="M56.6731 10.7692C57.2116 11.1731 57.8847 11.1731 58.4232 10.7692C58.6924 10.5 58.9616 10.2308 59.3655 9.69231C59.0962 9.15385 58.827 8.88462 58.4232 8.61538C57.8847 8.21154 57.2116 8.21154 56.6731 8.61538C56.4039 8.88462 56.1347 9.15385 55.7308 9.69231C56.1347 10.3654 56.4039 10.6346 56.6731 10.7692ZM47.9231 10.7692C48.4616 11.1731 49.1347 11.1731 49.6732 10.7692C49.9424 10.5 50.2116 10.2308 50.6155 9.69231C50.3462 9.15385 50.077 8.88462 49.6732 8.61538C49.1347 8.21154 48.4616 8.21154 47.9231 8.61538C47.6539 8.88462 47.3847 9.15385 46.9808 9.69231C47.3847 10.3654 47.6539 10.6346 47.9231 10.7692ZM31.2308 10.7692C33.6539 10.6346 36.077 10.2308 38.3655 9.69231C35.9424 9.15385 33.5193 8.88462 31.2308 8.61538C26.1155 8.21154 21.5385 8.21154 16.827 8.61538C14.4039 8.75 11.9808 9.15385 9.69238 9.69231C12.1155 10.2308 14.5385 10.5 16.827 10.7692C21.5385 11.1731 26.1155 11.1731 31.2308 10.7692ZM26.6539 46.9808C26.7885 49.1346 27.7308 51.2885 29.3462 52.6346C30.9616 53.9808 33.1155 54.6539 35.0001 54.3846C33.1155 54.1154 31.3655 53.1731 30.2885 51.8269C29.2116 50.4808 28.6732 48.7308 28.6732 47.1154C28.8078 43.75 31.7693 41.0577 35.0001 41.0577C38.2308 40.9231 41.1924 43.75 41.327 47.1154C41.4616 48.7308 40.9232 50.4808 39.7116 51.8269C38.6347 53.1731 36.8847 54.1154 35.0001 54.3846C36.8847 54.6539 39.0385 54.1154 40.6539 52.6346C42.2693 51.2885 43.3462 49.1346 43.3462 46.9808C43.4808 44.8269 42.5385 42.5385 41.0578 40.9231C39.4424 39.3077 37.2885 38.3654 35.0001 38.3654C32.7116 38.3654 30.4232 39.3077 28.9424 40.9231C27.4616 42.5385 26.5193 44.8269 26.6539 46.9808Z" fill="#13348F"/>
</svg>
