<svg width="190" height="190" viewBox="0 0 190 190" fill="none" xmlns="http://www.w3.org/2000/svg">
<path fill-rule="evenodd" clip-rule="evenodd" d="M96.6042 58.0963L95 0L93.3958 58.0963C93.2041 65.0394 91.0698 71.4926 87.5163 76.9325C81.1572 75.5986 75.0851 72.5447 70.0401 67.7708L27.8255 27.8249L67.7715 70.0394C72.5454 75.0844 75.5993 81.1567 76.9332 87.5159C71.4932 91.0696 65.0397 93.2041 58.0963 93.3958L0 95L58.0963 96.6042C65.0397 96.7959 71.4932 98.9304 76.9332 102.484C75.5993 108.843 72.5454 114.916 67.7715 119.961L27.8255 162.175L70.0401 122.229C75.0851 117.455 81.1572 114.401 87.5163 113.067C91.0698 118.507 93.2041 124.961 93.3958 131.904L95 190L96.6042 131.904C96.7959 124.961 98.9302 118.507 102.484 113.067C108.843 114.401 114.916 117.455 119.961 122.229L162.176 162.175L122.23 119.961C117.456 114.915 114.402 108.843 113.068 102.483C118.508 98.93 124.961 96.7959 131.904 96.6042L190 95L131.904 93.3958C124.961 93.2041 118.508 91.07 113.068 87.5166C114.402 81.1572 117.456 75.0847 122.23 70.0394L162.176 27.8249L119.961 67.7708C114.916 72.545 108.843 75.5989 102.484 76.9328C98.9302 71.4928 96.7959 65.0395 96.6042 58.0963Z" fill="white"/>
</svg>
