<svg width="111" height="111" viewBox="0 0 111 111" fill="none" xmlns="http://www.w3.org/2000/svg">
<path fill-rule="evenodd" clip-rule="evenodd" d="M56.4372 33.9404L55.5 0L54.5628 33.9404C54.4508 37.9968 53.2039 41.7668 51.1279 44.9449C47.4125 44.1657 43.8649 42.3815 40.9174 39.5924L16.2552 16.2556L39.592 40.9178C42.3811 43.8652 44.1653 47.4129 44.9445 51.1282C41.7665 53.204 37.9966 54.4508 33.9404 54.5628L0 55.5L33.9404 56.4372C37.9966 56.5492 41.7665 57.796 44.9445 59.8718C44.1653 63.5871 42.3811 67.1348 39.592 70.0822L16.2552 94.7444L40.9174 71.4076C43.8649 68.6185 47.4125 66.8343 51.1279 66.0551C53.2039 69.2332 54.4508 73.0033 54.5628 77.0596L55.5 111L56.4372 77.0596C56.5492 73.0033 57.796 69.2333 59.872 66.0552C63.5871 66.8345 67.1345 68.6186 70.0818 71.4076L94.744 94.7444L71.4072 70.0822C68.6182 67.1349 66.8341 63.5874 66.0548 59.8723C69.2329 57.7962 73.0031 56.5492 77.0596 56.4372L111 55.5L77.0596 54.5628C73.0031 54.4508 69.2329 53.2038 66.0548 51.1277C66.8341 47.4126 68.6182 43.8651 71.4072 40.9178L94.744 16.2556L70.0818 39.5924C67.1345 42.3814 63.5871 44.1655 59.872 44.9448C57.796 41.7667 56.5492 37.9967 56.4372 33.9404Z" fill="black"/>
</svg>
